<svg viewBox="0 0 24 24" width="24" height="24" xmlns="http://www.w3.org/2000/svg">
  <path fill-rule="evenodd" clip-rule="evenodd" d="M9 3H7V5H5V3C3.9 3 3 3.9 3 5H5V7H3V9H5V11H3V13H5V15H3V17H5V19H3C3 20.1 3.9 21 5 21V19H7V21H9V19H11V21H13V19H15V21H17V19H19V21C20.1 21 21 20.1 21 19H19V17H21V15H19V13H21V11H19V9H21V7H19V5H21C21 3.9 20.1 3 19 3V5H17V3H15V5H13V3H11V5H9V3ZM9 7V5H7V7H5V9H7V11H5V13H7V15H5V17H7V19H9V17H11V19H13V17H15V19H17V17H19V15H17V13H19V11H17V9H19V7H17V5H15V7H13V5H11V7H9ZM9 9V7H7V9H9ZM11 9V7H13V9H11ZM11 11V9H9V11H7V13H9V15H7V17H9V15H11V17H13V15H15V17H17V15H15V13H17V11H15V9H17V7H15V9H13V11H11ZM11 13V11H9V13H11ZM13 13V15H11V13H13ZM13 13V11H15V13H13Z" />
</svg>
