<svg width="48" height="48" viewBox="0 0 66 66" fill="none" xmlns="http://www.w3.org/2000/svg">
  <path d="M65 10.3822C65 10.356 64.9999 10.3298 64.9997 10.3037M64.9997 10.3037C64.9895 9.06185 64.738 7.87751 64.2899 6.79525M64.9997 10.3037C65.0199 12.7309 64.104 15.1645 62.252 17.0164M64.9997 10.3037C64.9897 9.10934 64.7532 7.9165 64.2899 6.79525M64.2899 6.79525C62.8812 3.39327 59.529 1 55.6178 1H10.3822C5.20055 1 1 5.20055 1 10.3822C1 15.5638 5.20055 19.7644 10.3822 19.7644H32.9672L3.74798 48.9836M64.2899 6.79525C63.832 5.68701 63.1527 4.64871 62.252 3.74798M1 55.6178C1 55.6251 1.00001 55.6324 1.00003 55.6397M1.00003 55.6397C1.00292 56.9038 1.25579 58.1091 1.71182 59.2089M1.00003 55.6397C0.99443 53.2313 1.91042 50.8211 3.74798 48.9836M1.00003 55.6397C1.00285 56.8545 1.24011 58.0688 1.71182 59.2089M1.71182 59.2089C3.12152 62.6087 6.4726 65 10.3822 65H55.6178C60.7994 65 65 60.7994 65 55.6178C65 50.4362 60.7994 46.2356 55.6178 46.2356H33L62.252 17.0164M1.71182 59.2089C2.16967 60.3156 2.84839 61.3524 3.74798 62.252M62.252 17.0164C65.916 13.3524 65.916 7.41196 62.252 3.74798M62.252 17.0164L46.2684 33L62.252 48.9836C65.916 52.6476 65.916 58.588 62.252 62.252C58.588 65.916 52.6476 65.916 48.9836 62.252L33 46.2684L17.0164 62.252M62.252 17.0164L17.0164 62.252M62.252 3.74798C58.588 0.0840057 52.6476 0.0840057 48.9836 3.74798L33 19.7316L17.0164 3.74798C13.3524 0.0840057 7.41196 0.0840057 3.74798 3.74798C0.0840057 7.41196 0.0840057 13.3524 3.74798 17.0164L19.7316 33L3.74798 48.9836M3.74798 48.9836C0.0840057 52.6476 0.0840057 58.588 3.74798 62.252M3.74798 62.252C7.41196 65.916 13.3524 65.916 17.0164 62.252" stroke="#0060ff" stroke-width="2" stroke-linecap="round"/>
</svg>