<svg width="256" height="48" viewBox="0 0 256 48" fill="none" xmlns="http://www.w3.org/2000/svg">
  <path d="M221.24 35.6353L211.451 12.3661H216.005L223.414 30.5157L230.79 12.3661H235.108L225.455 35.6353H221.24Z" fill="#0060FF"/>
  <path d="M195.036 18.1504L187.388 30.5157H185.246L177.429 18.3159V35.6353H173.181V12.3661H178.551L186.437 25.0316L194.254 12.3661H199.284V35.6353H195.036V18.1504Z" fill="#0060FF"/>
  <path d="M158.873 28.2885C158.193 28.3544 157.49 28.388 156.765 28.388H153.502V35.6353H149.253V12.3661H156.765C160.527 12.3661 163.246 13.0309 164.922 14.3606C166.621 15.6674 167.472 17.6296 167.472 20.2445C167.472 23.7019 165.976 26.0732 162.984 27.3585L169.069 35.6353H163.971L158.873 28.2885ZM153.502 16.1895V24.5659H157.07C159.064 24.5659 160.56 24.2335 161.557 23.5687C162.554 22.881 163.053 21.7397 163.053 20.1449C163.053 18.7049 162.588 17.6847 161.659 17.0872C160.73 16.4897 159.223 16.1895 157.139 16.1895H153.502Z" fill="#0060FF"/>
  <path d="M119.307 23.967C119.307 22.2161 119.601 20.6092 120.192 19.1476C120.803 17.6847 121.664 16.4224 122.774 15.3578C123.885 14.2946 125.221 13.4737 126.784 12.8977C128.349 12.2988 130.105 12 132.053 12C133.956 12 135.69 12.2772 137.254 12.8304C138.84 13.3848 140.187 14.1816 141.298 15.2232C142.408 16.2434 143.27 17.495 143.881 18.9794C144.493 20.4639 144.799 22.1488 144.799 24.0316C144.799 25.7825 144.493 27.3894 143.881 28.8524C143.292 30.3153 142.443 31.5776 141.332 32.6422C140.222 33.7054 138.873 34.5371 137.288 35.1359C135.723 35.7119 133.98 36 132.053 36C130.15 36 128.405 35.7336 126.819 35.2019C125.256 34.6474 123.918 33.8614 122.807 32.8413C121.698 31.7996 120.837 30.5372 120.225 29.0516C119.614 27.5469 119.307 25.8512 119.307 23.967ZM123.794 24.0007C123.794 25.1311 123.963 26.1943 124.303 27.1916C124.667 28.1888 125.199 29.0529 125.901 29.785C126.604 30.5157 127.464 31.1039 128.484 31.5466C129.527 31.9679 130.728 32.1779 132.088 32.1779C133.357 32.1779 134.489 31.9786 135.487 31.579C136.506 31.1806 137.366 30.6261 138.07 29.9169C138.795 29.2076 139.349 28.3544 139.735 27.3571C140.12 26.3383 140.313 25.2186 140.313 23.9993C140.313 22.8688 140.131 21.8056 139.769 20.8084C139.429 19.8111 138.908 18.9471 138.206 18.215C137.503 17.4842 136.63 16.9068 135.589 16.487C134.569 16.0442 133.378 15.8221 132.019 15.8221C130.75 15.8221 129.605 16.0213 128.586 16.421C127.566 16.8194 126.695 17.3846 125.97 18.1167C125.267 18.826 124.723 19.6792 124.338 20.6765C123.976 21.6737 123.794 22.7814 123.794 24.0007Z" fill="#0060FF"/>
  <path d="M116.167 26.5604H104.541V35.6353H100.293V12.3661H116.71V16.1882H104.541V22.7369H116.167V26.5604Z" fill="#0060FF"/>
  <path d="M96.719 16.1898H88.6978V35.6355H84.4484V16.1898H76.5634V12.3677H96.719V16.1898Z" fill="#0060FF"/>
  <path d="M78.2557 35.6353H73.7353L71.4579 30.1174H60.5483L58.3054 35.6353H53.9872L63.6403 12.3661H68.4677L78.2557 35.6353ZM69.8947 26.294L65.9866 16.7534L62.0772 26.294H69.8947Z" fill="#0060FF"/>
  <path d="M39.5485 31.8132H52.4643V35.6353H35.3005V12.3661H39.5498L39.5485 31.8132Z" fill="#0060FF"/>
  <path d="M16.2493 28.388V35.6353H12V12.3661H19.9193C23.6802 12.3661 26.3993 13.0309 28.0767 14.3606C29.7763 15.6674 30.6265 17.6296 30.6265 20.2445C30.6265 22.9698 29.7198 25.0087 27.9075 26.3613C26.0952 27.7138 23.4325 28.3894 19.9207 28.3894L16.2493 28.388ZM16.2493 16.1895V24.5659H20.2262C22.2201 24.5659 23.7159 24.2335 24.7122 23.5687C25.7085 22.881 26.208 21.7397 26.208 20.1449C26.208 18.7049 25.7429 17.6847 24.8141 17.0872C23.8852 16.4883 22.3784 16.1895 20.2936 16.1895H16.2493Z" fill="#0060FF"/>
</svg>
